<svg width="32" height="32" viewBox="0 0 32 32" fill="none" xmlns="http://www.w3.org/2000/svg">
<path d="M5.95801 15.8333V4M26.6663 27.6667V23.2292M5.95801 27.6667V21.75M26.6663 17.3125V4M16.3122 8.4375V4M16.3122 27.6667V14.3542" stroke="#17171B" stroke-linecap="round"/>
<path d="M5.95833 21.7507C7.59218 21.7507 8.91667 20.4262 8.91667 18.7923C8.91667 17.1585 7.59218 15.834 5.95833 15.834C4.32449 15.834 3 17.1585 3 18.7923C3 20.4262 4.32449 21.7507 5.95833 21.7507Z" stroke="#17171B" stroke-linecap="round"/>
<path d="M16.3128 14.3542C17.9467 14.3542 19.2712 13.0297 19.2712 11.3958C19.2712 9.76199 17.9467 8.4375 16.3128 8.4375C14.679 8.4375 13.3545 9.76199 13.3545 11.3958C13.3545 13.0297 14.679 14.3542 16.3128 14.3542Z" stroke="#17171B" stroke-linecap="round"/>
<path d="M26.6663 23.2292C28.3002 23.2292 29.6247 21.9047 29.6247 20.2708C29.6247 18.637 28.3002 17.3125 26.6663 17.3125C25.0325 17.3125 23.708 18.637 23.708 20.2708C23.708 21.9047 25.0325 23.2292 26.6663 23.2292Z" stroke="#17171B" stroke-linecap="round"/>
</svg>
