<svg width="133" height="37" viewBox="0 0 133 37" fill="none" xmlns="http://www.w3.org/2000/svg">
<g clip-path="url(#clip0_0_893)">
<path d="M10.3473 7.78507H0.0253906V0H31.3958V7.78507H20.6467V35.6393H10.3698L10.3473 7.78507Z" fill="white"/>
<path d="M22.704 10.5762H31.7891V26.3007C31.7891 26.3007 31.9464 28.6825 34.5775 28.6825C37.1861 28.6825 37.456 26.3007 37.456 26.3007V10.5762H46.8558V36.1368H37.456V33.755C37.456 33.755 34.555 36.9749 29.7426 36.9749C25.4475 36.9749 23.7609 33.755 23.7609 33.755C23.7609 33.755 22.704 31.9686 22.704 29.4545C22.704 26.9183 22.704 10.5762 22.704 10.5762Z" fill="white"/>
<path d="M56.7397 10.5762H47.5421V36.1368H56.942V21.934C56.942 21.934 57.3243 18.6921 62.2492 18.0966H63.8232V10.7967H62.2266C62.2266 10.7967 58.0889 11.1937 56.7397 14.3695V10.5762Z" fill="white"/>
<path d="M125.855 10.5762H116.657V36.1368H126.057V21.934C126.057 21.934 126.439 18.6921 131.364 18.0966H132.938V10.7967H131.341C131.341 10.7967 127.204 11.1937 125.855 14.3695V10.5762Z" fill="white"/>
<path d="M74.063 10.114H64.8209V35.6746H73.9962V20.722C73.9962 20.722 74.5578 18.0755 76.8292 18.0755C79.1005 18.0755 79.6401 20.744 79.6401 20.744V35.6526H88.7702V16.9507C88.7702 16.9507 88.6579 9.51852 82.0465 9.51852C82.0465 9.51852 77.5266 9.36415 74.063 13.003V10.114Z" fill="white"/>
<path d="M102.23 9.51763C102.23 9.51763 89.6593 9.38532 89.6593 23.1029C89.6593 23.1029 89.5015 36.5559 102.23 36.5559C102.23 36.5559 113.361 37.438 115.25 26.7859H106.705C106.705 26.7859 105.558 30.2925 102.679 30.2925C99.801 30.2925 98.7439 26.2125 98.5868 25.2863H115.52C115.497 25.2863 116.846 9.51763 102.23 9.51763ZM98.6544 19.3758C98.6544 19.3758 99.6212 15.4722 102.477 15.4722C105.873 15.4722 106.615 19.3758 106.615 19.3758H98.6544Z" fill="white"/>
</g>
<defs>
<clipPath id="clip0_0_893">
<rect width="133" height="37" fill="white"/>
</clipPath>
</defs>
</svg>
