<svg width="133" height="37" viewBox="0 0 133 37" fill="none" xmlns="http://www.w3.org/2000/svg">
<g clip-path="url(#clip0_0_543)">
<path d="M10.3287 7.79053H0V0H31.391V7.79053H20.6348V35.6643H10.3512L10.3287 7.79053Z" fill="#0B1F41"/>
<path d="M22.6934 10.584H31.7844V26.3196C31.7844 26.3196 31.9419 28.7031 34.5747 28.7031C37.185 28.7031 37.455 26.3196 37.455 26.3196V10.584H46.8611V36.1626H37.455V33.7791C37.455 33.7791 34.5522 37.0012 29.7367 37.0012C25.4387 37.0012 23.751 33.7791 23.751 33.7791C23.751 33.7791 22.6934 31.9914 22.6934 29.4755C22.6934 26.9375 22.6934 10.584 22.6934 10.584Z" fill="#0B1F41"/>
<path d="M56.7504 10.584H47.5469V36.1626H56.9529V21.9498C56.9529 21.9498 57.3355 18.7056 62.2635 18.1097H63.8387V10.8047H62.241C62.241 10.8047 58.1006 11.202 56.7504 14.38V10.584Z" fill="#0B1F41"/>
<path d="M125.913 10.584H116.709V36.1626H126.115V21.9498C126.115 21.9498 126.498 18.7056 131.426 18.1097H133.001V10.8047H131.403C131.403 10.8047 127.263 11.202 125.913 14.38V10.584Z" fill="#0B1F41"/>
<path d="M74.0864 10.1203H64.8379V35.6988H74.0189V20.7357C74.0189 20.7357 74.5815 18.0873 76.8542 18.0873C79.127 18.0873 79.6671 20.7578 79.6671 20.7578V35.6767H88.8031V16.9618C88.8031 16.9618 88.6906 9.52438 82.0748 9.52438C82.0748 9.52438 77.5518 9.3699 74.0864 13.0113V10.1203Z" fill="#0B1F41"/>
<path d="M102.272 9.52348C102.272 9.52348 89.6935 9.39106 89.6935 23.1183C89.6935 23.1183 89.5359 36.5807 102.272 36.5807C102.272 36.5807 113.411 37.4635 115.301 26.8039H106.75C106.75 26.8039 105.603 30.3129 102.722 30.3129C99.8421 30.3129 98.7845 26.2301 98.627 25.3032H115.571C115.549 25.3032 116.899 9.52348 102.272 9.52348ZM98.6945 19.3886C98.6945 19.3886 99.6621 15.4822 102.52 15.4822C105.918 15.4822 106.66 19.3886 106.66 19.3886H98.6945Z" fill="#0B1F41"/>
</g>
<defs>
<clipPath id="clip0_0_543">
<rect width="133" height="37" fill="white"/>
</clipPath>
</defs>
</svg>
